# xmcd
#
# Track frame offsets:
#	150
#	14782
#	29410
#	29900
#	30495
#
# Disc length: 411 seconds
#
# Revision: 0
# Processed by: cddbd v1.5.1PL2 Copyright (c) Steve Scherf et al.
# Submitted via: EasyCDDAExtractor 4.5.2.1
#
DISCID=3f019905
DTITLE=Martina McBride - Valentine (Single)
DYEAR=1999
DGENRE=Country
TTITLE0=Valentine (remix)
TTITLE1=Valentine (album Version)
TTITLE2=Valentine Liner 1
TTITLE3=Valentine Line 3
TTITLE4=Valentine Liner 2
EXTD=
EXTT0=
EXTT1=
EXTT2=
EXTT3=
EXTT4=
PLAYORDER=
